<?xml-stylesheet type="text/css" href="../css/logo.css" ?>
<!-- Generator: Adobe Illustrator 16.0.2, SVG Export Plug-In . SVG Version: 6.00 Build 0)  -->
<!DOCTYPE svg PUBLIC "-//W3C//DTD SVG 1.1//EN" "http://www.w3.org/Graphics/SVG/1.1/DTD/svg11.dtd">
<svg version="1.1" id="Logo_1_" xmlns="http://www.w3.org/2000/svg" xmlns:xlink="http://www.w3.org/1999/xlink" x="0px" y="0px"
	  viewBox="0 0 155 50" enable-background="new 0 0 155 50" xml:space="preserve">
<g id="Financial_Occult">
	<text transform="matrix(1 0 0 1 59.957 45.4453)" fill="#222222" font-family="'Poppins'" font-size="12">Financial Occult</text>
</g>
<g id="F__x26__O">
	<text transform="matrix(1 0 0 1 57.957 28.4453)"><tspan x="0" y="0" fill="#222222" font-family="'Montserrat Alternates'" font-weight="700" font-size="33" letter-spacing="-2">F </tspan><tspan x="19.832" y="0" fill="#222222" font-family="'Montserrat Alternates'" font-weigh="600" font-size="22" letter-spacing="-1">&amp;</tspan><tspan x="32.768" y="0" fill="#222222" font-family="'Montserrat Alternates'" font-weight="700" font-size="33" letter-spacing="-2"> O</tspan></text>
</g>
<g id="Ellipse_7">
	<g>
		<circle fill-rule="evenodd" clip-rule="evenodd" fill="#18BA60" cx="25" cy="25" r="25"/>
	</g>
</g>
<g id="Forma_1">
	<g>
		<path fill-rule="evenodd" clip-rule="evenodd" fill="#FFFFFF" d="M31.271,26.497c-0.618-0.729-1.354-1.34-2.208-1.834
			c-0.854-0.493-1.776-0.83-2.765-1.009v-3.23h3.473c0.472,0,0.876-0.175,1.213-0.522c0.337-0.348,0.506-0.769,0.506-1.262
			s-0.168-0.914-0.506-1.262c-0.337-0.348-0.742-0.521-1.213-0.521h-3.473v-1.683h5.563c0.472,0,0.877-0.174,1.214-0.521
			s0.506-0.769,0.506-1.262c0-0.494-0.169-0.914-0.506-1.263c-0.337-0.348-0.742-0.521-1.214-0.521h-5.563v-0.235
			c0-0.471-0.174-0.875-0.522-1.211c-0.348-0.337-0.77-0.505-1.264-0.505s-0.916,0.168-1.264,0.505
			c-0.349,0.336-0.522,0.74-0.522,1.211v12.418c-0.899,0.247-1.736,0.628-2.512,1.144c-0.775,0.517-1.444,1.127-2.006,1.834
			c-0.562,0.707-1,1.503-1.315,2.39c-0.315,0.886-0.472,1.812-0.472,2.775c0,1.167,0.219,2.261,0.658,3.281
			c0.438,1.021,1.039,1.913,1.804,2.676c0.764,0.763,1.657,1.362,2.68,1.8c1.023,0.438,2.119,0.656,3.287,0.656
			c1.169,0,2.265-0.219,3.287-0.656s1.916-1.037,2.68-1.8s1.365-1.655,1.804-2.676s0.657-2.114,0.657-3.281
			c0-1.031-0.18-2.013-0.539-2.944C32.377,28.057,31.889,27.227,31.271,26.497z M29.045,33.698c-0.236,0.55-0.562,1.032-0.978,1.447
			s-0.899,0.741-1.45,0.977c-0.551,0.234-1.141,0.353-1.77,0.353c-0.629,0-1.219-0.118-1.77-0.353
			c-0.551-0.235-1.028-0.562-1.433-0.977c-0.404-0.415-0.725-0.897-0.961-1.447c-0.236-0.549-0.354-1.138-0.354-1.767
			c0-0.628,0.118-1.217,0.354-1.766c0.236-0.551,0.557-1.026,0.961-1.431c0.405-0.404,0.882-0.724,1.433-0.959
			c0.55-0.235,1.141-0.354,1.77-0.354c0.629,0,1.219,0.118,1.77,0.354s1.034,0.555,1.45,0.959s0.742,0.88,0.978,1.431
			c0.236,0.549,0.354,1.138,0.354,1.766C29.399,32.561,29.282,33.149,29.045,33.698z"/>
	</g>
</g>
</svg>
