<?xml version="1.0" encoding="utf-8"?>
<!-- Generator: Adobe Illustrator 16.0.2, SVG Export Plug-In . SVG Version: 6.00 Build 0)  -->
<!DOCTYPE svg PUBLIC "-//W3C//DTD SVG 1.1//EN" "http://www.w3.org/Graphics/SVG/1.1/DTD/svg11.dtd">
<svg version="1.1" id="Forma_1_1_" xmlns="http://www.w3.org/2000/svg" xmlns:xlink="http://www.w3.org/1999/xlink" x="0px" y="0px"
	 width="60px" height="56px" viewBox="0 0 60 56" enable-background="new 0 0 60 56" xml:space="preserve">
<g id="Forma_1">
	<g>
		<path fill-rule="evenodd" clip-rule="evenodd" fill="#18BA60" d="M16,18.001c-2.206,0-4,1.793-4,3.999s1.794,4,4,4s4-1.794,4-4
			S18.206,18.001,16,18.001z M16,24c-1.103,0-2-0.897-2-2s0.897-2,2-2s2,0.897,2,2S17.103,24,16,24z M30,18.001
			c-2.206,0-4,1.793-4,3.999s1.794,4,4,4s4-1.794,4-4S32.206,18.001,30,18.001z M30,24c-1.103,0-2-0.897-2-2s0.897-2,2-2
			c1.104,0,2,0.897,2,2S31.104,24,30,24z M44,18.001c-2.206,0-4,1.793-4,3.999s1.794,4,4,4s4-1.794,4-4S46.206,18.001,44,18.001z
			 M44,24c-1.104,0-2-0.897-2-2s0.896-2,2-2s2,0.897,2,2S45.104,24,44,24z M54,0H6C2.748,0,0,2.748,0,6v33c0,3.252,2.748,6,6,6
			h28.559l9.702,10.674c0.193,0.212,0.464,0.327,0.739,0.327c0.121,0,0.243-0.021,0.361-0.067C45.746,55.784,46,55.413,46,55V45h8
			c3.252,0,6-2.748,6-6V6C60,2.748,57.252,0,54,0z M58,39c0,2.168-1.832,4-4,4h-9c-0.553,0-1,0.447-1,1v8.413l-8.243-9.067
			l-4.998-5.812c-0.36-0.418-0.993-0.467-1.41-0.105c-0.419,0.359-0.466,0.991-0.106,1.41L32.82,43H6c-2.168,0-4-1.832-4-4V6
			c0-2.168,1.832-4,4-4h48c2.168,0,4,1.832,4,4V39z"/>
	</g>
</g>
</svg>
